# xmcd CD database file
#
# Track frame offsets:
#	150
#	1692
#	23995
#	46210
#	73600
#	92797
#	115312
#
# Disc length: 1603 seconds
#
# Revision: 0
# Processed by: cddbd v1.5.1PL0 Copyright (c) Steve Scherf et al.
# Submitted via: CDex 1.51
#
DISCID=4f064107
DTITLE=B-FRESH feat.V.A. - PUMP IT UP 〜未来に繋げ B-BOY スタンス〜
DYEAR=2003
DGENRE=Hip-Hop
TTITLE0=INTRO
TTITLE1=PUMP IT UP 〜未来に繋げ B-BOY スタンス〜
TTITLE2=固い絆　〜SHOGUNATIC〜
TTITLE3=September 6
TTITLE4=Back ?Life
TTITLE5=PUMP IT UP 〜未来に繋げ B-BOY スタンス〜 (BK DOPE EDIT)
TTITLE6=キックとスネアと歌声
EXTD=YEAR: 2003
EXTT0=
EXTT1=
EXTT2=
EXTT3=
EXTT4=
EXTT5=
EXTT6=
PLAYORDER=
